<svg xmlns="http://www.w3.org/2000/svg" data-name="Layer 1" viewBox="0 0 5 6.25" x="0px" y="0px"><title>Hipster_Beard_Geek_Man_Moustache</title><path d="M3.41655,2.19407a.41723.41723,0,0,0-.11024.02383.22575.22575,0,0,0-.13281.095.00885.00885,0,0,0,.00192.01237l.00408.00163a.43183.43183,0,0,0,.18617-.04428c.03189-.01.11995-.05252.13515-.01051a.00869.00869,0,0,0,.01149.00435l.00442-.0045C3.54926,2.21055,3.45926,2.19232,3.41655,2.19407Z"/><path d="M3.01448,2.24993c-.01509-.05069-.08169-.03771-.12247-.04093-.07923-.00626-.15659-.02231-.23634-.02364-.11014-.00183-.25838.01762-.30031.14086l.00409.0088.00639-.0009a.50916.50916,0,0,1,.34946-.06366.8659.8659,0,0,0,.28282.01932A.031.031,0,0,0,3.01448,2.24993Z"/><path d="M2.87062,2.45959c-.07256-.17666-.323-.07906-.42416.00581-.00391.00329-.00163.01171.00424.01011a1.01364,1.01364,0,0,1,.21712-.04623.08554.08554,0,0,0-.00029.05651.05537.05537,0,0,0,.07475.02334l.00261-.00146a.07993.07993,0,0,0,.04917-.05677.55212.55212,0,0,0,.0678.0203.00849.00849,0,0,0,.00933-.00756Z"/><path d="M3.17727,2.443a.37133.37133,0,0,1-.00915-.062l-.00618-.00441-.00443.00452a.60436.60436,0,0,0,.03112.27781.0142.0142,0,0,0,.027-.00378.57872.57872,0,0,0-.03394-.19342A.12527.12527,0,0,1,3.263,2.43118l-.00086.0054a.04707.04707,0,0,0,.037.05087A.06953.06953,0,0,0,3.379,2.43181c.02058.00527.03583.01626.05736.0123a.01335.01335,0,0,0,.01122-.01146C3.44985,2.33524,3.21838,2.36366,3.17727,2.443Z"/><path d="M3.23807,2.75732c-.00169-.0054-.01091-.00292-.00961.00263a.26318.26318,0,0,1,.01011.09811.11261.11261,0,0,1-.0602.07257l-.003.00721.00721.003c.036-.01157.08506-.01257.09606-.0569C3.28975,2.83932,3.25057,2.79732,3.23807,2.75732Z"/><path d="M3.15236,2.94891l-.00023.00193Z"/><path d="M3.07585,2.89038a.18363.18363,0,0,0-.05809.00568c-.02038.00473-.0426.01526-.04551.0366a.04968.04968,0,0,1-.01968-.007c-.02269-.01575-.02293-.05206-.03608-.07429H2.908a.10437.10437,0,0,0-.00516.08961.07794.07794,0,0,0,.09043.04139.02508.02508,0,0,0,.01639-.0223.29019.29019,0,0,0,.03185-.01879.1041.1041,0,0,0,.04277-.03123.01251.01251,0,0,0-.00289-.01746Z"/><path d="M2.75244,3.17764c-.06739.02134-.11439.07311-.18847.08514-.04931.008-.14.021-.17322-.02685-.00364-.00524-.01168-.00021-.00945.00548.055.14023.34862.07283.39862-.03677C2.788,3.1869,2.76832,3.17261,2.75244,3.17764Z"/><path d="M2.89717,3.14871a.017.017,0,0,0-.0194-.0142l-.0076.0032a.4035.4035,0,0,0-.05059.06469.3312.3312,0,0,1-.09883.07909.34923.34923,0,0,1-.23141.0441c-.00657-.00142-.00775.00792-.00268.01059a.28537.28537,0,0,0,.258-.00665C2.80476,3.30123,2.91381,3.22819,2.89717,3.14871Z"/><path d="M3.011,3.04852a.01773.01773,0,0,0-.02488-.00312l-.00322.00325a.392.392,0,0,0-.025.08043.29464.29464,0,0,1-.06108.09957.58906.58906,0,0,1-.18034.14423l-.00215.00581.00552.00227a.45112.45112,0,0,0,.22871-.124C2.99334,3.2076,3.05207,3.11392,3.011,3.04852Z"/><path d="M3.08907,3.00951a.01812.01812,0,0,0-.022.0001c-.02929.02939-.0241.08346-.03712.12212a.3746.3746,0,0,1-.08586.156l-.00066.008.00757.001a.379.379,0,0,0,.12644-.13741C3.09735,3.11963,3.12925,3.04473,3.08907,3.00951Z"/><path d="M3.29534,3.25419a.78079.78079,0,0,0-.0561-.10517.49846.49846,0,0,1-.03855-.13293l-.00718-.005-.005.00514a.29208.29208,0,0,0,.0018.1456.33651.33651,0,0,0,.01574.04573c-.01572.00125-.0309.00351-.04117.00325a.25494.25494,0,0,0-.03811.00163A.23849.23849,0,0,0,3.14733,3.011l-.00819-.00318-.00322.00328c-.00946.03369-.01171.06857-.02031.10248a.40673.40673,0,0,1-.04912.10061.01624.01624,0,0,0,.00142.01744.19807.19807,0,0,0-.03757.0277c-.00628.00581-.00291.01821.00691.01647a.32117.32117,0,0,1,.089.01094.41737.41737,0,0,0,.07221.0041.11883.11883,0,0,0,.05737-.0211l.01263.00553C3.281,3.27924,3.29956,3.26981,3.29534,3.25419Z"/><path d="M3.68161,3.2189c-.01521-.008-.02454.00227-.03609.01014a.09113.09113,0,0,1-.08146.02264.4337.4337,0,0,1-.21244-.15763l-.00943-.001-.00242.006a.26752.26752,0,0,0,.117.18366c-.01052-.005-.02176-.00892-.03228-.01512a.34646.34646,0,0,1-.06439-.0495A.28525.28525,0,0,1,3.26822,3.076c-.001-.00858-.01375-.00661-.01316.00184a.34489.34489,0,0,0,.06409.17657c.02743.03981.095.12211.15174.09384A.03055.03055,0,0,0,3.48662,3.308l-.00345-.006-.005-.00535a.22977.22977,0,0,0,.05.02224c.057.017.17108.01341.17281-.06768A.0328.0328,0,0,0,3.68161,3.2189Z"/><path d="M3.63193,3.149a.12543.12543,0,0,1-.17682-.01421l-.00141-.00168c-.00488-.00658-.01459.001-.01.00771a.18445.18445,0,0,0,.11178.08881.10134.10134,0,0,0,.12294-.05452C3.691,3.14584,3.6512,3.12719,3.63193,3.149Z"/><path d="M3.45358,2.56144c-.00358-.00463-.01233-.00159-.011.00461a1.47511,1.47511,0,0,1,.00826.26448.54543.54543,0,0,1-.02726.16275,1.1575,1.1575,0,0,1-.017.12117l.00616.00346a.21087.21087,0,0,0,.03236-.10267c.01024-.06728.03655-.12656.05256-.19178A.35466.35466,0,0,0,3.45358,2.56144Z"/><path d="M3.49543,2.3064c-.01324.01808-.03262.04465-.02732.069l.0062.00433.00438-.00581c-.00154-.01141.01183-.02215.01779-.03081A.05968.05968,0,0,0,3.50936,2.312a.00784.00784,0,0,0-.00706-.00855Z"/><path d="M1.84251,2.98855c-.05224.02442-.13229-.02739-.1709-.05848A.84124.84124,0,0,1,1.51413,2.758a.27476.27476,0,0,1-.04384-.25259.18738.18738,0,0,1,.199-.10416c.006.00082.00878-.00877.00268-.0106a.24231.24231,0,0,0-.16571-.0032.3983.3983,0,0,1-.01488-.073.25018.25018,0,0,0-.02967-.07935c-.00537-.00888-.01885-.0002-.01529.00887.01428.03638-.01256.08031-.01135.11841a.102.102,0,0,0,.02043.062l-.01162.014a.26422.26422,0,0,0,.011.2902.72075.72075,0,0,0,.20275.26489.39561.39561,0,0,0,.10721.05331c-.00776.07505.01318.15338.013.2288a1.264,1.264,0,0,1-.01709.24845.771.771,0,0,1-.23655.41406c-.0102.00945-.00114.03026.01322.0228a.61927.61927,0,0,0,.28742-.389A.953.953,0,0,0,1.848,3.30044a.78122.78122,0,0,0-.054-.24838.07057.07057,0,0,0,.07131-.03413C1.87427,3.00293,1.86151,2.97967,1.84251,2.98855Z"/><path d="M1.77707,2.78245c-.0238-.01044-.01348.0058-.01786-.01633-.00217-.011.00707-.02993.00763-.04078a.11255.11255,0,0,0-.03079-.08194c-.03656-.04666-.07434-.1243-.13726-.137-.02821-.00572-.08067-.00135-.07178.0384l.00621.00442L1.53728,2.546c.02485-.05742.10409.05834.11325.07282a.55757.55757,0,0,0,.04293.05733.08366.08366,0,0,1,.02105.08681c-.02367.09624.09975.03141.11874.1177.00187.0085.01573.01242.01867.00223C1.86828,2.8262,1.82178,2.80207,1.77707,2.78245Z"/><path d="M3.2307,1.28848a.63291.63291,0,0,0-.129-.23732A2.02021,2.02021,0,0,1,2.939.77C2.93539.7633,2.92479.76741,2.92789.77462c.0326.07566.04258.15922.07956.23375s.09347.13717.12757.21339a.46857.46857,0,0,1,.0342.23722.29761.29761,0,0,1-.0477.13012.57147.57147,0,0,0-.0279-.253c-.03228-.08978-.0892-.17006-.12914-.25664A1.61942,1.61942,0,0,1,2.872.78568L2.86538.781,2.86073.7858a.73337.73337,0,0,0,.10227.43871.72362.72362,0,0,1,.09462.29884.70614.70614,0,0,0-.06579-.19048c-.04037-.08813-.09508-.16952-.12829-.26087A2.1632,2.1632,0,0,1,2.79742.76326C2.79409.74708,2.76859.75053,2.77189.76683L2.77316.773l.00439.00429c-.02736-.00246-.00668.2114-.00337.23036A.79532.79532,0,0,0,2.864,1.246a.60586.60586,0,0,1,.11447.38183.01877.01877,0,0,0,.01669.02064l.009-.00126a.08794.08794,0,0,0,.04071-.03579.25008.25008,0,0,1-.03557.07012.02011.02011,0,0,0,.02359.0304A.10934.10934,0,0,0,3.08525,1.677a.0176.0176,0,0,0,.01661.00656C3.25555,1.65213,3.2576,1.40532,3.2307,1.28848Z"/><path d="M3.36914,1.20383a.42743.42743,0,0,0-.15272-.188C3.17955.98769,3.13875.96459,3.10405.93361A.66425.66425,0,0,1,3.0121.819c-.007-.00972-.0213-.00041-.01752.01016.04887.13623.20055.19709.27834.31533a.34853.34853,0,0,1,.04625.26427.53273.53273,0,0,1-.04441.12966.81049.81049,0,0,1-.0813.10915c-.00363.00526.00291.01241.00821.00814a.526.526,0,0,0,.10188-.07822.43516.43516,0,0,0,.06082-.12116A.397.397,0,0,0,3.36914,1.20383Z"/><path d="M3.26045.97114C3.254.96787,3.24874.97787,3.25432.98206a.46768.46768,0,0,1,.17454.36135.38843.38843,0,0,1-.033.20488.19263.19263,0,0,1-.07958.08489.44719.44719,0,0,0-.0862.03973.0172.0172,0,0,0-.00254.02419l.01092.0062C3.425,1.71443,3.5,1.531,3.498,1.3723A.42664.42664,0,0,0,3.26045.97114Z"/><path d="M3.39387,1.73725c.00888-.01532.045-.02819.05916-.041a.124.124,0,0,0,.04734-.0903l-.00543-.00639L3.491,1.60064a.58047.58047,0,0,0-.12193.08046c-.02846.03042-.01576.04763-.00378.08456.01648.05082.01356.10281.02831.15382a1.16481,1.16481,0,0,0,.0723.17947.00814.00814,0,0,0,.01079.004l.00471-.00826A1.18546,1.18546,0,0,0,3.402,1.77353C3.3937,1.75477,3.38483,1.75286,3.39387,1.73725Z"/><path d="M2.94658,1.66289a.556.556,0,0,1-.02215-.09567.359.359,0,0,0-.00945-.0814.48581.48581,0,0,0-.08956-.16714.50676.50676,0,0,1-.09864-.442L2.7235.86961l-.007.003a.46319.46319,0,0,0,.00028.40674,1.34911,1.34911,0,0,1,.12583.20176c.01794.05058.01918.09487.03637.1369a.34185.34185,0,0,0-.06842-.06441.45864.45864,0,0,1-.11375-.16414,1.2042,1.2042,0,0,1-.03743-.36775.00846.00846,0,0,0-.00976-.00693l-.007.00711a.92923.92923,0,0,0-.00832.38163.45212.45212,0,0,0,.22744.26791.022.022,0,0,0,.02843-.01263l.00129-.01074-.004-.01209a.181.181,0,0,0,.02892.03952C2.92707,1.68645,2.95027,1.68109,2.94658,1.66289Z"/><path d="M2.78316,1.6505c-.05321-.06937-.15007-.08279-.199-.16153a.21316.21316,0,0,1-.02268-.15831A.537.537,0,0,1,2.59453,1.179c.00836-.0142-.01028-.02946-.021-.01581a.45387.45387,0,0,0-.05765.14421.28573.28573,0,0,0-.00647.16675.37853.37853,0,0,0,.24569.2135.02437.02437,0,0,0,.02806-.03718Z"/><path d="M2.63744,1.6497c-.02778-.05369-.093-.05116-.14031-.08a.21376.21376,0,0,1-.1009-.22359.52243.52243,0,0,1,.13184-.23448A.79134.79134,0,0,0,2.63486.89919.00908.00908,0,0,0,2.618.8925a.87991.87991,0,0,1-.08841.16053c-.027.03642-.06049.0673-.08752.10378a.46486.46486,0,0,0-.08965.24268.24549.24549,0,0,0,.0669.19639.50558.50558,0,0,0,.178.09474.03143.03143,0,0,0,.04013-.04092Z"/><path d="M2.52371,1.69578c-.08767-.036-.16227-.03587-.20033-.13937a.42988.42988,0,0,1,.006-.28743l-.00447-.00883-.00853.0037a.449.449,0,0,0-.04483.33608.23035.23035,0,0,0,.24576.14936.02812.02812,0,0,0,.0064-.05351Z"/><path d="M2.30337,1.69542c-.025-.03937-.07136-.04926-.09265-.09494a.21045.21045,0,0,1-.0209-.15438c.00359-.00891-.00962-.017-.01512-.00849-.05864.09008-.01662.28374.11053.28976a.02023.02023,0,0,0,.01814-.03195Z"/><path d="M2.25043,1.759c-.0258-.04345-.08078-.05669-.11849-.0885A.2394.2394,0,0,1,2.04051,1.522a.35353.35353,0,0,1,.08309-.305c.00844-.00758-.00171-.02126-.01087-.01413a.36381.36381,0,0,0-.132.31893.31551.31551,0,0,0,.25158.26908C2.25107,1.79516,2.25807,1.77182,2.25043,1.759Z"/><path d="M2.23958,1.82025c-.0301.018-.07128.027-.08753.06117-.00584.01228.00629.02327.01783.02268.0397-.002.0541-.04724.081-.0692a.00925.00925,0,0,0-.0113-.01465Z"/><path d="M2.24635,1.88339a.41507.41507,0,0,0-.0563.038.01525.01525,0,0,0,.01857.02415A.1346.1346,0,0,0,2.26,1.897C2.26518,1.88784,2.25593,1.87658,2.24635,1.88339Z"/><path d="M2.27607,1.95576a.00981.00981,0,0,0-.00892-.01063l-.0085.00363c-.00406.00449-.01161.00616-.01656.00964l-.01621.015c-.01231.012-.02372.0244-.03482.03754a.02349.02349,0,0,0,.00238.0309.02409.02409,0,0,0,.03093.0021.12169.12169,0,0,0,.04093-.03725.07186.07186,0,0,0,.01185-.02637C2.27859,1.97185,2.2754,1.96414,2.27607,1.95576Z"/><path d="M2.2322,2.06581a1.0773,1.0773,0,0,1-.10267.062c-.02154.01332-.00055.04662.02177.03753a.28758.28758,0,0,0,.10281-.07788C2.26631,2.07459,2.24569,2.0552,2.2322,2.06581Z"/><path d="M2.1664,2.1898a.37978.37978,0,0,0-.16607.08809c-.01709.01329-.00092.04367.01951.03364.05515-.02708.09344-.08473.151-.10561a.00846.00846,0,0,0,.00425-.01119Z"/><path d="M2.05435,2.31608a.18312.18312,0,0,0-.08389.06593c-.00891.01263.00444.03466.02014.026.03223-.01788.04771-.05008.07358-.07492a.00993.00993,0,0,0-.00983-.017Z"/><path d="M2.00517,2.43947a.16571.16571,0,0,0-.018.02028l-.00678.00987L1.97517,2.484a.00966.00966,0,0,0,.00586.01234l.00886-.00124a.0481.0481,0,0,0,.0177-.01831l.014-.02106C2.02976,2.44577,2.01485,2.43032,2.00517,2.43947Z"/><path d="M1.45672,2.08192a.36881.36881,0,0,0-.021-.10646.0101.0101,0,0,0-.01922.00526c.001.03556-.01266.06964-.01279.1052a.31876.31876,0,0,0,.01434.09545.0208.0208,0,0,0,.02741.01068l.008-.00622C1.48276,2.15391,1.46455,2.11885,1.45672,2.08192Z"/><path d="M1.83932,2.4599l-.01013-.00381-.00444.0078c.00293.04592-.004.093.00192.13836a.0129.0129,0,0,0,.02458.00294A.18183.18183,0,0,0,1.83932,2.4599Z"/><path d="M1.86343,2.61861c-.01126.039-.01779.07883-.02587.11847-.00212.01041.013.01295.01714.00433a.45107.45107,0,0,0,.02463-.11878C1.881,2.61355,1.86607,2.60955,1.86343,2.61861Z"/><path d="M1.98642,2.58851a.42236.42236,0,0,0-.02419.15168.015.015,0,0,0,.02862.00343.43025.43025,0,0,0,.01906-.15234C2.01178,2.57582,1.98978,2.574,1.98642,2.58851Z"/><path d="M2.0347,2.73442a.22541.22541,0,0,0-.0205.09011.01244.01244,0,0,0,.01431.01023l.00769-.00452a.16581.16581,0,0,0,.01787-.09092C2.05416,2.72892,2.03823,2.72258,2.0347,2.73442Z"/><path d="M2.11238,2.85109A.17447.17447,0,0,1,2.09,2.87331a.04447.04447,0,0,0-.01938.02924.01241.01241,0,0,0,.011.01367l.00294,0a.05327.05327,0,0,0,.03131-.02336.0858.0858,0,0,0,.01739-.03335C2.13607,2.8474,2.11907,2.843,2.11238,2.85109Z"/><path d="M2.16126,2.9136a.0609.0609,0,0,0-.01813.012l-.01476.01354a.01819.01819,0,0,0-.00447.02321A.01784.01784,0,0,0,2.14626,2.97a.06591.06591,0,0,0,.03756-.03939C2.187,2.91756,2.17154,2.91032,2.16126,2.9136Z"/><path d="M2.23013,2.97794a.10747.10747,0,0,0-.02193.01137.054.054,0,0,0-.01633.01974.01188.01188,0,0,0,.00388.0138.01229.01229,0,0,0,.01433-.00006c.01139-.00733.02083-.01672.03167-.02483a.01172.01172,0,0,0-.01162-.02Z"/><path d="M2.32389,3.03638a.01832.01832,0,0,0-.0176-.0087A.05577.05577,0,0,0,2.2709,3.043a.03748.03748,0,0,0-.01285.03562.01209.01209,0,0,0,.023.00276l.002-.00128.00319-.00227.01007-.00467.01128-.00492a.04724.04724,0,0,0,.01521-.0124A.01745.01745,0,0,0,2.32389,3.03638Z"/><path d="M2.40672,3.09464c-.01547-.01226-.0315-.00246-.04591.00594a.10839.10839,0,0,0-.02781.02011c-.00657.00728.003.01745.01112.01433a.05114.05114,0,0,1,.02861-.00184l.01355.00292A.02732.02732,0,0,0,2.411,3.12549.02226.02226,0,0,0,2.40672,3.09464Z"/><path d="M2.49888,3.12043a.15168.15168,0,0,0-.04159.016.06677.06677,0,0,0-.02882.02439c-.00478.00852.00493.01609.01247.01585.00994-.00031.0195-.00143.02956-.00117a.17421.17421,0,0,0,.03617.00048C2.54207,3.16932,2.5346,3.114,2.49888,3.12043Z"/><path d="M2.62467,3.17089c-.02683-.00654-.05183.01567-.07782.01962-.01238.00188-.017.02251-.00313.02614a.09438.09438,0,0,0,.09155-.02094C2.64407,3.186,2.63485,3.17337,2.62467,3.17089Z"/><path d="M3.25007,3.32764a1.15624,1.15624,0,0,1-.15334.01551.24114.24114,0,0,0-.11439.00056.01106.01106,0,0,0-.00576.01454L2.98,3.36261a.42557.42557,0,0,0,.12391.051c-.03037.07455.05541.15621.09064.21283.00581.00934.02146.00017.01668-.00967a.5378.5378,0,0,1-.03-.092.14218.14218,0,0,1-.00627-.09815l.00256-.00713a.11614.11614,0,0,0,.09364-.05591.02286.02286,0,0,0-.021-.03594Z"/><path d="M3.308,3.56107c-.00582-.00549-.01021-.01511-.01576-.02149L3.26949,3.5145a.15363.15363,0,0,1-.01957-.02367c-.006-.01026-.00637-.02239-.01487-.03126a.029.029,0,0,0-.04082-.004l-.00818.01085c-.01518.0289.01487.06472.03642.08158a.15554.15554,0,0,0,.03617.02081A.216.216,0,0,1,3.293,3.581a.01248.01248,0,0,0,.015-.01993Z"/><path d="M3.34939,3.49432a.10473.10473,0,0,1-.06-.05958c-.005-.01508-.02582-.00934-.02825.004-.01232.06728.05034.11452.10415.13817a.02548.02548,0,0,0,.03282-.01419C3.41019,3.52607,3.37862,3.50645,3.34939,3.49432Z"/><path d="M3.469,3.42526A.15016.15016,0,0,0,3.41228,3.402a.11924.11924,0,0,1-.05071-.02c-.00918-.01018-.02917-.00453-.02629.011a.08014.08014,0,0,0,.0418.05053.22538.22538,0,0,0,.07189.03157C3.47807,3.481,3.48833,3.44176,3.469,3.42526Z"/><path d="M2.87246,3.38732a.62289.62289,0,0,1-.0702.03518.322.322,0,0,0-.07216.0296.02112.02112,0,0,0,.0103.03734.15852.15852,0,0,0,.14741-.087C2.89127,3.39364,2.88165,3.38256,2.87246,3.38732Z"/><path d="M2.93571,3.412a.68088.68088,0,0,0-.05564.04437.14447.14447,0,0,0-.05021.055c-.01195.02758.02122.04548.04291.03237a.19835.19835,0,0,0,.05246-.05643.14875.14875,0,0,0,.0323-.06289.01379.01379,0,0,0-.01248-.015Z"/><path d="M3.02366,3.43783a.01608.01608,0,0,0-.02261-.00247l-.00476.0063a.23275.23275,0,0,0-.01283.04494.09119.09119,0,0,0-.0085.04869.02253.02253,0,0,0,.02579.01871l.00475-.0013C3.04164,3.53512,3.04481,3.46832,3.02366,3.43783Z"/><circle cx="3.05519" cy="3.55515" r="0.01155" transform="matrix(0.51428, -0.85763, 0.85763, 0.51428, -1.56501, 4.34703)"/><path d="M3.43966,3.589c-.00665-.00618-.01526.00286-.01285.01a.49362.49362,0,0,1,.05039.19737c-.00071.012-.00221.02383-.00393.03559A.3599.3599,0,0,0,3.408,3.68081c-.00732-.00974-.02472-.00036-.01891.011a.31489.31489,0,0,1,.04214.1831.26636.26636,0,0,1-.05047.1281.61645.61645,0,0,0-.03689-.34149c-.00469-.01378-.02614-.00735-.02418.00662a.7244.7244,0,0,1-.00378.36443.28664.28664,0,0,0,.01159-.04516.41741.41741,0,0,0-.007-.158A.95476.95476,0,0,0,3.262,3.68649c-.00412-.01052-.02234-.00892-.02267.00317-.00217.08156.02621.15988.02238.243a.2827.2827,0,0,1-.10573.20263.023.023,0,0,0,.02273.0392A.20569.20569,0,0,0,3.296,4.07692l-.01576.02681a.01221.01221,0,0,0,.01711.017.2032.2032,0,0,0,.0476-.045.02324.02324,0,0,0,.032.00752l.00064-.00041a.21259.21259,0,0,0,.08784-.113.01687.01687,0,0,0,.0225.00794l.00826-.00865A.33522.33522,0,0,0,3.43966,3.589Z"/><path d="M3.51375,3.51657a.01313.01313,0,0,0-.02423.01011.76317.76317,0,0,1,.04147.2201c.00158.02619.04124.02014.04012-.00562A.60707.60707,0,0,0,3.51375,3.51657Z"/><path d="M3.50857,3.4001c-.008-.00264-.01726.007-.01073.01422.04279.04749.03268.11736.05575.17361.00583.01423.03117.01259.03136-.00439C3.58561,3.52465,3.57544,3.42226,3.50857,3.4001Z"/><path d="M2.01207,2.90819l-.00992-.0037-.00434.00761c.00451.06059-.04048.11014-.06551.16186-.00854.01766.02032.03439.03052.01714C1.99517,3.03648,2.04159,2.97383,2.01207,2.90819Z"/><path d="M2.027,3.04382a.83083.83083,0,0,0-.12017.37654c-.00079.02211.03233.03419.0402.01015.021-.06417.0304-.13137.04818-.19647A1.33681,1.33681,0,0,1,2.041,3.05169C2.04458,3.04352,2.03174,3.03586,2.027,3.04382Z"/><path d="M2.02937,3.37a.72348.72348,0,0,0,.0452-.19627.013.013,0,0,0-.02575-.003c-.032.12989-.19991.35489-.03863.463a.02124.02124,0,0,0,.03213-.02493A.30334.30334,0,0,1,2.02937,3.37Z"/><path d="M2.15282,3.75862a.68335.68335,0,0,1-.02547-.35508.01638.01638,0,0,0-.03251-.00383.51039.51039,0,0,0,.01322.38487C2.12507,3.80923,2.16407,3.78552,2.15282,3.75862Z"/><path d="M2.23374,3.71819a1.5719,1.5719,0,0,0-.01387-.21208.01009.01009,0,0,0-.01993.00022.8387.8387,0,0,0-.00112.4161.02369.02369,0,0,0,.045-.0063A.7154.7154,0,0,0,2.23374,3.71819Z"/><path d="M2.32907,3.85978a.83727.83727,0,0,1-.02877-.23389c-.00009-.02067-.03222-.02508-.03251-.00383a1.261,1.261,0,0,0-.00263.23206.54517.54517,0,0,0,.06757.17926c.013.02228.04213.00266.04132-.01734A.63213.63213,0,0,0,2.32907,3.85978Z"/><path d="M2.50734,4.06295a.53617.53617,0,0,1-.08464-.36972.01881.01881,0,0,0-.03734-.0044c-.01527.12387-.03647.32106.0854.40251C2.489,4.10349,2.519,4.08562,2.50734,4.06295Z"/><path d="M2.61607,4.10751a.84418.84418,0,0,0-.05119-.15594A1.12811,1.12811,0,0,1,2.54,3.77045a.01269.01269,0,0,0-.02507.00027.5387.5387,0,0,0,.05275.35.02539.02539,0,0,0,.04836-.01321Z"/><path d="M2.65161,3.85157c.00314-.01616-.024-.02339-.02836-.00716a.338.338,0,0,0-.00627.15312,1.18662,1.18662,0,0,0,.03532.16916c.00868.02593.04451.01618.04875-.00682C2.72022,4.05566,2.63072,3.95923,2.65161,3.85157Z"/><path d="M2.758,3.90457c.00018-.01922-.0294-.02342-.03026-.00357a.54513.54513,0,0,0,.01178.1388c.00975.04675.01161.096.02441.14158a.02713.02713,0,0,0,.04984-.00045C2.84251,4.08708,2.75707,3.99793,2.758,3.90457Z"/><path d="M2.88546,3.93992a.01216.01216,0,0,0-.02407.00337c.006.04233.01111.08541.01313.12813.00205.04345-.00889.08484-.00832.12777.00037.028.03818.025.04823.00577C2.954,4.12939,2.90326,4.01612,2.88546,3.93992Z"/><path d="M3.00207,3.90814a.01237.01237,0,0,0-.02443.00026c-.00578.05208-.00886.10774-.01881.159a.24487.24487,0,0,0-.01594.12345.02426.02426,0,0,0,.03184.01277l.00971-.00753A.45689.45689,0,0,0,3.00207,3.90814Z"/><path d="M3.13585,3.93883a.76436.76436,0,0,1-.02608-.15438.01411.01411,0,0,0-.028-.0033c-.01179.07913.00029.15888-.00441.23861-.0041.06955-.04966.12523-.05323.19369-.00135.02588.03706.049.05283.02121a.43046.43046,0,0,0,.06585-.18224A.6357.6357,0,0,0,3.13585,3.93883Z"/><path d="M3.19748,3.7562a.01367.01367,0,0,0-.027.00029c-.00371.06921.00338.13911-.00546.208-.00219.01709.0243.02464.02991.00755A.54122.54122,0,0,0,3.19748,3.7562Z"/><path d="M2.09969,1.75719A.78305.78305,0,0,1,1.978,1.71127a.21449.21449,0,0,1-.0853-.13515.63463.63463,0,0,1,.01709-.26821c.00132-.00588-.00841-.00834-.01028-.0026A.52234.52234,0,0,0,1.86288,1.65c.02954.07871.14571.19229.23717.14534a.02087.02087,0,0,0-.00036-.03811Z"/><path d="M1.89532,1.76054a.2923.2923,0,0,1-.11614-.07093.25276.25276,0,0,1-.03447-.17034c.00011-.00977-.01437-.012-.01545-.00182-.00734.06923-.03147.13877.01239.201.0308.04371.09212.09574.14895.08159a.02076.02076,0,0,0,.00472-.0395Z"/><path d="M1.76707,1.79664c-.05273-.05118-.14-.0603-.133-.15342a.00762.00762,0,0,0-.01513-.00178.13213.13213,0,0,0,.02451.118A.20669.20669,0,0,0,1.67,1.78627c-.0939-.05445-.33541-.04054-.3705.05358a.00949.00949,0,0,0,.00573.01214L1.314,1.85076A.3187.3187,0,0,1,1.51732,1.808a.26231.26231,0,0,1,.10356.02464c.02128.01161.0349.0344.0599.03671a.02321.02321,0,0,0,.02392-.01427.05021.05021,0,0,0-.01445-.05369.15183.15183,0,0,0,.065.02483.01668.01668,0,0,0,.01182-.02958Z"/><path d="M1.6122,1.87132c-.05333-.05585-.15735-.01589-.21462.01684-.03418.01954-.11188.06683-.0882.11635.00383.008.01783.00761.01832-.00256.00185-.03845.074-.06314.10406-.07505a.33394.33394,0,0,1,.07659-.02033c.03052-.00427.06068.00232.0907-.0031C1.61252,1.901,1.62326,1.88286,1.6122,1.87132Z"/><path d="M1.5602,1.695a.45132.45132,0,0,0-.13355-.04065.17355.17355,0,0,0-.0963-.02094c-.008.002-.01149.01422-.00209.01742.03541.012.06511.03388.09931.04826a.22423.22423,0,0,0,.1243.02812A.01823.01823,0,0,0,1.5602,1.695Z"/><path d="M1.556,1.11052,1.55673,1.103l-.00607-.00161a.20293.20293,0,0,0-.149.2054.31393.31393,0,0,0,.11229.30792.02.02,0,0,0,.02781-.02806.4691.4691,0,0,1-.08484-.27334.27609.27609,0,0,1,.01884-.12177A.29909.29909,0,0,1,1.556,1.11052Z"/><path d="M1.81844.97419a.56919.56919,0,0,0-.25307.26306.29179.29179,0,0,0,.02176.2889l.01032.001.00219-.00823A.37156.37156,0,0,1,1.6479,1.227a2.08914,2.08914,0,0,1,.19815-.21724A.0235.0235,0,0,0,1.81844.97419Z"/><path d="M2.12143.92362a2.15673,2.15673,0,0,0-.31427.24286.448.448,0,0,0-.15482.30362A.01452.01452,0,0,0,1.68,1.47341.63832.63832,0,0,1,1.89935,1.172,1.3376,1.3376,0,0,0,2.15428.95617.02344.02344,0,0,0,2.12143.92362Z"/><path d="M2.33217.9055A.02271.02271,0,0,0,2.28892.90032a.33331.33331,0,0,1-.073.122.632.632,0,0,1-.10587.07386,3.20539,3.20539,0,0,0-.28245.18019c-.00456.00344-.00013.01173.00516.0089.11626-.06236.24381-.10035.35814-.16788C2.26441,1.074,2.35265,1.00123,2.33217.9055Z"/><path d="M2.58249.85826A.02519.02519,0,0,0,2.53458.85252a.46989.46989,0,0,1-.12668.16419,1.19277,1.19277,0,0,1-.194.14814l-.0027.00735.00559.00319a.49108.49108,0,0,0,.249-.12719C2.52214,1.00608,2.60333.93743,2.58249.85826Z"/><path d="M2.218,1.25558a.26722.26722,0,0,0-.14336.21756.01432.01432,0,0,0,.02742.00692c.02556-.07154.0528-.16454.12556-.20145a.01249.01249,0,0,0-.00962-.023Z"/><path d="M1.59922,1.96111a.23406.23406,0,0,0-.0549.1254.01192.01192,0,0,0,.02119.00851.48415.48415,0,0,0,.04183-.12935l-.00283-.006Z"/><path d="M1.6456,2.11054,1.6388,2.1057l-.00363.00214a.66741.66741,0,0,0-.04665.08436c-.01647.02889-.03076.05836-.04525.08829a.01383.01383,0,0,0,.0238.01337A.32271.32271,0,0,0,1.6456,2.11054Z"/><path d="M1.71161,2.18632a.74733.74733,0,0,1-.10906.13824.01322.01322,0,0,0,.01553.02.21065.21065,0,0,0,.10407-.15408l-.00372-.00712Z"/><path d="M1.82083,2.26792a.089.089,0,0,0-.03175.07028.0083.0083,0,0,0,.00756.009l.00833-.005c.01008-.02119.00764-.04865.02339-.06683C1.83244,2.27066,1.82557,2.26455,1.82083,2.26792Z"/><path d="M1.85381,2.03979a1.23582,1.23582,0,0,0-.09029.15388l.00316.0053c.02644.00171.03928-.02908.05251-.04716a.25921.25921,0,0,0,.05813-.10257.01322.01322,0,0,0-.02351-.00945Z"/><path d="M1.77027,1.975a.18717.18717,0,0,0-.068.12237c-.00028.0058.00873.00692.009.00106a.10908.10908,0,0,1,.03595-.0593.33386.33386,0,0,0,.039-.0483C1.79228,1.981,1.78007,1.96525,1.77027,1.975Z"/><path d="M1.73145,1.93332a.43523.43523,0,0,0-.07515.07147l.0011.00635.00529,0A.39955.39955,0,0,0,1.74422,1.946C1.75074,1.93814,1.73927,1.92666,1.73145,1.93332Z"/><path d="M2.03646,1.90687a.30037.30037,0,0,1-.062.09444c-.00324.00411.00251.01.00662.00656.03063-.02574.072-.0522.07347-.09643C2.05487,1.90159,2.03974,1.89593,2.03646,1.90687Z"/><path d="M2.15007,1.93676a.01017.01017,0,0,0-.01179-.00823l-.00611.00359a.30512.30512,0,0,1-.04294.03989.17493.17493,0,0,0-.04408.04073.01669.01669,0,0,0,.00367.02332l.007.003-.0122.01543a.23427.23427,0,0,1-.03162.02613c-.00457.00326-.00014.01118.005.00862a.24535.24535,0,0,0,.039-.02342c.01049-.008.02416-.01816.02352-.03252l-.00028-.00093a.14447.14447,0,0,0,.046-.03493A.0746.0746,0,0,0,2.15007,1.93676Z"/><path d="M1.90163,2.18468a.36752.36752,0,0,1-.0336.03l-.00054.00687.00647.00084a.28611.28611,0,0,0,.03429-.03118Z"/><path d="M1.93494,2.28832c-.015.00449-.02255.02244-.02872.03551-.00184.0039.003.00921.007.00691a.07226.07226,0,0,0,.03212-.03216.008.008,0,0,0-.00468-.0103Z"/><path d="M1.92638,2.46276l-.02209.02253-.00067.00823.00778.001a.08667.08667,0,0,0,.02481-.02437L1.93464,2.4616Z"/><path d="M2.96353,2.45332a.0857.0857,0,0,0-.0565-.04853c-.00767-.0007-.01571.00764-.01159.01536a.39131.39131,0,0,1,.02022.03935.073.073,0,0,1-.00075.05085.01768.01768,0,0,0,.02694.02032.05573.05573,0,0,0,.02274-.07546Z"/><path d="M2.26437,2.80232a.24781.24781,0,0,0-.05858-.0815c-.022-.02691-.04016-.05666-.06279-.083-.00345-.004-.01211-.003-.01216.00335a.219.219,0,0,0,.1082.187.01989.01989,0,0,0,.02533-.02585Z"/><path d="M1.99223,1.86091a.012.012,0,0,0-.01659-.00217c-.01273.01154-.01724.03164-.02784.04571a.16825.16825,0,0,0-.0291.05c-.00448.01411.01155.029.02445.01844a.16323.16323,0,0,0,.04433-.0521C1.996,1.90409,2.00574,1.87727,1.99223,1.86091Z"/><path d="M1.86613,1.85568c-.00294-.02019-.0354-.02109-.03664.0004a.07288.07288,0,0,1-.01177.03265l-.01826.03278a.01537.01537,0,0,0,.018.02323A.0816.0816,0,0,0,1.86613,1.85568Z"/><path d="M1.94452,2.06245a.0085.0085,0,0,0-.01126-.00421l-.00488.00647a.04188.04188,0,0,1-.01344.02589l-.02121.02346c-.00954.00992.00445.02272.015.01928a.05593.05593,0,0,0,.036-.02913A.045.045,0,0,0,1.94452,2.06245Z"/><path d="M2.04661,2.13956l-.00745-.002a.55509.55509,0,0,1-.05346.04172.40017.40017,0,0,0-.05834.04213.01547.01547,0,0,0,.01531.02641.2092.2092,0,0,0,.0754-.04534C2.03455,2.18664,2.05594,2.16379,2.04661,2.13956Z"/><path d="M2.14527,2.99932a.009.009,0,0,0-.0127-.0016l-.00165.00167a.34428.34428,0,0,0-.05751.11171c-.00272.01545.01778.02129.02671.01072C2.12327,3.0944,2.1689,3.03751,2.14527,2.99932Z"/><path d="M2.22417,3.06675H2.21566a.47167.47167,0,0,0-.10194.26093.02084.02084,0,0,0,.03988.01007,1.67089,1.67089,0,0,0,.05847-.16943C2.2235,3.13622,2.24635,3.098,2.22417,3.06675Z"/><path d="M2.29815,3.14823c-.0003-.00549-.00739-.00614-.01043-.0027a.5202.5202,0,0,0-.0961.24792.022.022,0,0,0,.04207.01062A.72309.72309,0,0,0,2.29815,3.14823Z"/><path d="M2.35748,3.23222,2.34906,3.229l-.00329.00335a.77863.77863,0,0,0-.053.128.70684.70684,0,0,0-.00925.16678.0191.0191,0,0,0,.0364.00436.72563.72563,0,0,0,.0226-.17545C2.34747,3.31432,2.37078,3.274,2.35748,3.23222Z"/><path d="M2.39565,3.35915l-.00532-.00369-.00339.00269a.78291.78291,0,0,0-.06449.30234.01954.01954,0,0,0,.03739.00944.35882.35882,0,0,0,.03025-.15779A.52049.52049,0,0,0,2.39565,3.35915Z"/><path d="M2.50342,3.39982l-.00648-.00063L2.49532,3.402c-.00412.05045-.02574.09822-.03212.14882a.31887.31887,0,0,0,.01314.17159c.00684.01568.03464.01429.03508-.00491.00161-.069-.0042-.138.00132-.207C2.51559,3.475,2.53088,3.42908,2.50342,3.39982Z"/><path d="M2.651,3.39842l-.00741-.00527-.0027.00113a.202.202,0,0,0-.05479.08507.29061.29061,0,0,0-.03134.11215.01775.01775,0,0,0,.034.00858.84749.84749,0,0,0,.04385-.10975A.17551.17551,0,0,0,2.651,3.39842Z"/><path d="M2.69114,3.50411a.40867.40867,0,0,0-.12182.31281c.00083.021.03017.02066.03765.00451a.665.665,0,0,0,.03641-.14632.77668.77668,0,0,1,.05525-.16534l-.00289-.0063Z"/><path d="M2.76921,3.57761c-.02972.02079-.03151.06369-.04.09621a.31859.31859,0,0,0-.01833.13322.01976.01976,0,0,0,.03765.00451,1.01591,1.01591,0,0,0,.03962-.22317.012.012,0,0,0-.01095-.013Z"/><path d="M2.86137,3.63549c-.03037.08643-.0801.19756-.02929.28457.00969.0166.03061.00172.03034-.01273a.8949.8949,0,0,1,.02-.26347C2.88633,3.63012,2.8663,3.62145,2.86137,3.63549Z"/><path d="M2.97913,3.65542c-.00006-.005-.00663-.00527-.00927-.0024a.14405.14405,0,0,0-.02282.09552.45147.45147,0,0,0,.00288.134.01775.01775,0,0,0,.035-.00038A.90793.90793,0,0,0,2.97913,3.65542Z"/><path d="M3.05122,3.65469a.01237.01237,0,0,0-.02356.00645.52256.52256,0,0,0,.00562.096.01439.01439,0,0,0,.019.00733L3.0597,3.7569A.15923.15923,0,0,0,3.05122,3.65469Z"/><text x="0" y="20" fill="#000000" font-size="5px" font-weight="bold" font-family="'Helvetica Neue', Helvetica, Arial-Unicode, Arial, Sans-serif">Created by Alice Noir</text><text x="0" y="25" fill="#000000" font-size="5px" font-weight="bold" font-family="'Helvetica Neue', Helvetica, Arial-Unicode, Arial, Sans-serif">from the Noun Project</text></svg>